<mxfile host="app.diagrams.net" agent="Mozilla/5.0 (Windows NT 10.0; Win64; x64) AppleWebKit/537.36 (KHTML, like Gecko) Chrome/131.0.0.0 Safari/537.36 Edg/131.0.0.0" version="25.0.3">
  <diagram id="R2lEEEUBdFMjLlhIrx00" name="Page-1">
    <mxGraphModel dx="1202" dy="408" grid="1" gridSize="10" guides="0" tooltips="1" connect="1" arrows="1" fold="1" page="0" pageScale="1" pageWidth="827" pageHeight="1169" math="0" shadow="1" extFonts="Permanent Marker^https://fonts.googleapis.com/css?family=Permanent+Marker">
      <root>
        <mxCell id="0" />
        <mxCell id="1" parent="0" />
        <mxCell id="ESzOXi0CgvDct79OvY_y-1" value="document_types" style="rounded=0;whiteSpace=wrap;" vertex="1" parent="1">
          <mxGeometry x="-10" y="330" width="120" height="60" as="geometry" />
        </mxCell>
        <mxCell id="ESzOXi0CgvDct79OvY_y-27" value="" style="rounded=0;orthogonalLoop=1;jettySize=auto;exitX=1;exitY=0.5;exitDx=0;exitDy=0;endArrow=none;endFill=0;" edge="1" parent="1" source="ESzOXi0CgvDct79OvY_y-2" target="ESzOXi0CgvDct79OvY_y-18">
          <mxGeometry relative="1" as="geometry" />
        </mxCell>
        <mxCell id="ESzOXi0CgvDct79OvY_y-2" value="teacher_info" style="rounded=0;whiteSpace=wrap;" vertex="1" parent="1">
          <mxGeometry x="-40" y="740" width="120" height="60" as="geometry" />
        </mxCell>
        <mxCell id="ESzOXi0CgvDct79OvY_y-8" value="students_projects" style="rounded=0;whiteSpace=wrap;" vertex="1" parent="1">
          <mxGeometry x="1820" y="640" width="120" height="60" as="geometry" />
        </mxCell>
        <mxCell id="ESzOXi0CgvDct79OvY_y-30" value="" style="rounded=0;orthogonalLoop=1;jettySize=auto;exitX=0;exitY=0.5;exitDx=0;exitDy=0;entryX=1;entryY=0;entryDx=0;entryDy=0;endArrow=none;endFill=0;" edge="1" parent="1" source="ESzOXi0CgvDct79OvY_y-9" target="ESzOXi0CgvDct79OvY_y-1">
          <mxGeometry relative="1" as="geometry" />
        </mxCell>
        <mxCell id="ESzOXi0CgvDct79OvY_y-9" value="type_id" style="ellipse;whiteSpace=wrap;" vertex="1" parent="1">
          <mxGeometry x="140" y="270" width="140" height="80" as="geometry" />
        </mxCell>
        <mxCell id="ESzOXi0CgvDct79OvY_y-29" value="" style="rounded=0;orthogonalLoop=1;jettySize=auto;exitX=0.5;exitY=1;exitDx=0;exitDy=0;entryX=0.5;entryY=0;entryDx=0;entryDy=0;endArrow=none;endFill=0;" edge="1" parent="1" source="ESzOXi0CgvDct79OvY_y-10" target="ESzOXi0CgvDct79OvY_y-1">
          <mxGeometry relative="1" as="geometry" />
        </mxCell>
        <mxCell id="ESzOXi0CgvDct79OvY_y-10" value="type_name" style="ellipse;whiteSpace=wrap;" vertex="1" parent="1">
          <mxGeometry x="-20" y="220" width="140" height="80" as="geometry" />
        </mxCell>
        <mxCell id="ESzOXi0CgvDct79OvY_y-15" value="" style="rounded=0;orthogonalLoop=1;jettySize=auto;exitX=1;exitY=0.5;exitDx=0;exitDy=0;entryX=0;entryY=0.25;entryDx=0;entryDy=0;endArrow=none;endFill=0;" edge="1" parent="1" source="ESzOXi0CgvDct79OvY_y-11" target="ESzOXi0CgvDct79OvY_y-1">
          <mxGeometry relative="1" as="geometry" />
        </mxCell>
        <mxCell id="ESzOXi0CgvDct79OvY_y-11" value="type_description" style="ellipse;whiteSpace=wrap;" vertex="1" parent="1">
          <mxGeometry x="-190" y="270" width="150" height="90" as="geometry" />
        </mxCell>
        <mxCell id="ESzOXi0CgvDct79OvY_y-31" value="" style="rounded=0;orthogonalLoop=1;jettySize=auto;exitX=0.5;exitY=1;exitDx=0;exitDy=0;entryX=0.75;entryY=0;entryDx=0;entryDy=0;endArrow=none;endFill=0;" edge="1" parent="1" source="ESzOXi0CgvDct79OvY_y-12" target="ESzOXi0CgvDct79OvY_y-2">
          <mxGeometry relative="1" as="geometry" />
        </mxCell>
        <mxCell id="ESzOXi0CgvDct79OvY_y-12" value="teacher_phone" style="ellipse;whiteSpace=wrap;" vertex="1" parent="1">
          <mxGeometry x="40" y="620" width="150" height="80" as="geometry" />
        </mxCell>
        <mxCell id="ESzOXi0CgvDct79OvY_y-32" value="" style="rounded=0;orthogonalLoop=1;jettySize=auto;exitX=0.5;exitY=1;exitDx=0;exitDy=0;entryX=0.25;entryY=0;entryDx=0;entryDy=0;endArrow=none;endFill=0;" edge="1" parent="1" source="ESzOXi0CgvDct79OvY_y-16" target="ESzOXi0CgvDct79OvY_y-2">
          <mxGeometry relative="1" as="geometry" />
        </mxCell>
        <mxCell id="ESzOXi0CgvDct79OvY_y-16" value="teacher_email" style="ellipse;whiteSpace=wrap;" vertex="1" parent="1">
          <mxGeometry x="-135" y="616" width="150" height="80" as="geometry" />
        </mxCell>
        <mxCell id="ESzOXi0CgvDct79OvY_y-25" value="" style="rounded=0;orthogonalLoop=1;jettySize=auto;exitX=0;exitY=0.5;exitDx=0;exitDy=0;entryX=1;entryY=0;entryDx=0;entryDy=0;endArrow=none;endFill=0;" edge="1" parent="1" source="ESzOXi0CgvDct79OvY_y-17" target="ESzOXi0CgvDct79OvY_y-2">
          <mxGeometry relative="1" as="geometry" />
        </mxCell>
        <mxCell id="ESzOXi0CgvDct79OvY_y-17" value="teacher_name" style="ellipse;whiteSpace=wrap;" vertex="1" parent="1">
          <mxGeometry x="160" y="680" width="140" height="80" as="geometry" />
        </mxCell>
        <mxCell id="ESzOXi0CgvDct79OvY_y-18" value="teacher_image" style="ellipse;whiteSpace=wrap;" vertex="1" parent="1">
          <mxGeometry x="160" y="780" width="150" height="80" as="geometry" />
        </mxCell>
        <mxCell id="ESzOXi0CgvDct79OvY_y-23" value="" style="rounded=0;orthogonalLoop=1;jettySize=auto;exitX=1;exitY=0.5;exitDx=0;exitDy=0;entryX=0;entryY=0;entryDx=0;entryDy=0;endArrow=none;endFill=0;" edge="1" parent="1" source="ESzOXi0CgvDct79OvY_y-19" target="ESzOXi0CgvDct79OvY_y-2">
          <mxGeometry relative="1" as="geometry" />
        </mxCell>
        <mxCell id="ESzOXi0CgvDct79OvY_y-19" value="teacher_position" style="ellipse;whiteSpace=wrap;" vertex="1" parent="1">
          <mxGeometry x="-230" y="688" width="160" height="80" as="geometry" />
        </mxCell>
        <mxCell id="ESzOXi0CgvDct79OvY_y-26" value="" style="rounded=0;orthogonalLoop=1;jettySize=auto;exitX=1;exitY=0;exitDx=0;exitDy=0;entryX=0;entryY=0.5;entryDx=0;entryDy=0;endArrow=none;endFill=0;" edge="1" parent="1" source="ESzOXi0CgvDct79OvY_y-20" target="ESzOXi0CgvDct79OvY_y-2">
          <mxGeometry relative="1" as="geometry" />
        </mxCell>
        <mxCell id="ESzOXi0CgvDct79OvY_y-20" value="teacher_expert" style="ellipse;whiteSpace=wrap;" vertex="1" parent="1">
          <mxGeometry x="-230" y="780" width="150" height="80" as="geometry" />
        </mxCell>
        <mxCell id="ESzOXi0CgvDct79OvY_y-28" value="" style="rounded=0;orthogonalLoop=1;jettySize=auto;exitX=0.5;exitY=1;exitDx=0;exitDy=0;entryX=0.5;entryY=0;entryDx=0;entryDy=0;endArrow=none;endFill=0;" edge="1" parent="1" source="ESzOXi0CgvDct79OvY_y-21" target="ESzOXi0CgvDct79OvY_y-2">
          <mxGeometry relative="1" as="geometry" />
        </mxCell>
        <mxCell id="ESzOXi0CgvDct79OvY_y-21" value="teacher_id" style="ellipse;whiteSpace=wrap;" vertex="1" parent="1">
          <mxGeometry x="-50" y="530" width="150" height="80" as="geometry" />
        </mxCell>
        <mxCell id="ESzOXi0CgvDct79OvY_y-34" value="" style="rounded=0;orthogonalLoop=1;jettySize=auto;exitX=1;exitY=0.5;exitDx=0;exitDy=0;endArrow=none;endFill=0;" edge="1" parent="1" source="ESzOXi0CgvDct79OvY_y-35" target="ESzOXi0CgvDct79OvY_y-42">
          <mxGeometry relative="1" as="geometry" />
        </mxCell>
        <mxCell id="ESzOXi0CgvDct79OvY_y-35" value="users" style="rounded=0;whiteSpace=wrap;" vertex="1" parent="1">
          <mxGeometry x="570" y="720" width="120" height="60" as="geometry" />
        </mxCell>
        <mxCell id="ESzOXi0CgvDct79OvY_y-36" value="" style="rounded=0;orthogonalLoop=1;jettySize=auto;exitX=0.5;exitY=1;exitDx=0;exitDy=0;entryX=0.75;entryY=0;entryDx=0;entryDy=0;endArrow=none;endFill=0;" edge="1" parent="1" source="ESzOXi0CgvDct79OvY_y-37" target="ESzOXi0CgvDct79OvY_y-35">
          <mxGeometry relative="1" as="geometry" />
        </mxCell>
        <mxCell id="ESzOXi0CgvDct79OvY_y-37" value="email" style="ellipse;whiteSpace=wrap;" vertex="1" parent="1">
          <mxGeometry x="666" y="580" width="150" height="80" as="geometry" />
        </mxCell>
        <mxCell id="ESzOXi0CgvDct79OvY_y-38" value="" style="rounded=0;orthogonalLoop=1;jettySize=auto;exitX=0.5;exitY=1;exitDx=0;exitDy=0;entryX=0.25;entryY=0;entryDx=0;entryDy=0;endArrow=none;endFill=0;" edge="1" parent="1" source="ESzOXi0CgvDct79OvY_y-39" target="ESzOXi0CgvDct79OvY_y-35">
          <mxGeometry relative="1" as="geometry" />
        </mxCell>
        <mxCell id="ESzOXi0CgvDct79OvY_y-39" value="username" style="ellipse;whiteSpace=wrap;" vertex="1" parent="1">
          <mxGeometry x="451" y="580" width="150" height="80" as="geometry" />
        </mxCell>
        <mxCell id="ESzOXi0CgvDct79OvY_y-40" value="" style="rounded=0;orthogonalLoop=1;jettySize=auto;exitX=0;exitY=0.5;exitDx=0;exitDy=0;entryX=1;entryY=0;entryDx=0;entryDy=0;endArrow=none;endFill=0;" edge="1" parent="1" source="ESzOXi0CgvDct79OvY_y-41" target="ESzOXi0CgvDct79OvY_y-35">
          <mxGeometry relative="1" as="geometry" />
        </mxCell>
        <mxCell id="ESzOXi0CgvDct79OvY_y-41" value="role" style="ellipse;whiteSpace=wrap;" vertex="1" parent="1">
          <mxGeometry x="750" y="664" width="140" height="80" as="geometry" />
        </mxCell>
        <mxCell id="ESzOXi0CgvDct79OvY_y-42" value="phone_number" style="ellipse;whiteSpace=wrap;" vertex="1" parent="1">
          <mxGeometry x="778" y="757" width="150" height="80" as="geometry" />
        </mxCell>
        <mxCell id="ESzOXi0CgvDct79OvY_y-43" value="" style="rounded=0;orthogonalLoop=1;jettySize=auto;exitX=1;exitY=0.5;exitDx=0;exitDy=0;entryX=0;entryY=0;entryDx=0;entryDy=0;endArrow=none;endFill=0;" edge="1" parent="1" source="ESzOXi0CgvDct79OvY_y-44" target="ESzOXi0CgvDct79OvY_y-35">
          <mxGeometry relative="1" as="geometry" />
        </mxCell>
        <mxCell id="ESzOXi0CgvDct79OvY_y-44" value="password" style="ellipse;whiteSpace=wrap;" vertex="1" parent="1">
          <mxGeometry x="385" y="670" width="160" height="80" as="geometry" />
        </mxCell>
        <mxCell id="ESzOXi0CgvDct79OvY_y-45" value="" style="rounded=0;orthogonalLoop=1;jettySize=auto;exitX=1;exitY=0;exitDx=0;exitDy=0;entryX=0;entryY=0.5;entryDx=0;entryDy=0;endArrow=none;endFill=0;" edge="1" parent="1" source="ESzOXi0CgvDct79OvY_y-46" target="ESzOXi0CgvDct79OvY_y-35">
          <mxGeometry relative="1" as="geometry" />
        </mxCell>
        <mxCell id="ESzOXi0CgvDct79OvY_y-46" value="created_at" style="ellipse;whiteSpace=wrap;" vertex="1" parent="1">
          <mxGeometry x="368" y="760" width="150" height="80" as="geometry" />
        </mxCell>
        <mxCell id="ESzOXi0CgvDct79OvY_y-47" value="" style="rounded=0;orthogonalLoop=1;jettySize=auto;exitX=0.5;exitY=1;exitDx=0;exitDy=0;entryX=0.5;entryY=0;entryDx=0;entryDy=0;endArrow=none;endFill=0;" edge="1" parent="1" source="ESzOXi0CgvDct79OvY_y-48" target="ESzOXi0CgvDct79OvY_y-35">
          <mxGeometry relative="1" as="geometry" />
        </mxCell>
        <mxCell id="ESzOXi0CgvDct79OvY_y-48" value="user_id" style="ellipse;whiteSpace=wrap;" vertex="1" parent="1">
          <mxGeometry x="557" y="510" width="150" height="80" as="geometry" />
        </mxCell>
        <mxCell id="ESzOXi0CgvDct79OvY_y-51" value="document_forms" style="rounded=0;whiteSpace=wrap;" vertex="1" parent="1">
          <mxGeometry x="562" y="320" width="120" height="60" as="geometry" />
        </mxCell>
        <mxCell id="ESzOXi0CgvDct79OvY_y-66" value="" style="rounded=0;orthogonalLoop=1;jettySize=auto;exitX=0.5;exitY=1;exitDx=0;exitDy=0;entryX=0.75;entryY=0;entryDx=0;entryDy=0;endArrow=none;endFill=0;" edge="1" parent="1" source="ESzOXi0CgvDct79OvY_y-53" target="ESzOXi0CgvDct79OvY_y-51">
          <mxGeometry relative="1" as="geometry" />
        </mxCell>
        <mxCell id="ESzOXi0CgvDct79OvY_y-53" value="cod_title" style="ellipse;whiteSpace=wrap;" vertex="1" parent="1">
          <mxGeometry x="641" y="200" width="120" height="80" as="geometry" />
        </mxCell>
        <mxCell id="ESzOXi0CgvDct79OvY_y-69" value="" style="rounded=0;orthogonalLoop=1;jettySize=auto;exitX=1;exitY=0;exitDx=0;exitDy=0;entryX=0;entryY=1;entryDx=0;entryDy=0;endArrow=none;endFill=0;" edge="1" parent="1" source="ESzOXi0CgvDct79OvY_y-55" target="ESzOXi0CgvDct79OvY_y-51">
          <mxGeometry relative="1" as="geometry" />
        </mxCell>
        <mxCell id="ESzOXi0CgvDct79OvY_y-55" value="uploade_by" style="ellipse;whiteSpace=wrap;" vertex="1" parent="1">
          <mxGeometry x="430" y="380" width="120" height="80" as="geometry" />
        </mxCell>
        <mxCell id="ESzOXi0CgvDct79OvY_y-70" value="" style="rounded=0;orthogonalLoop=1;jettySize=auto;exitX=0;exitY=0;exitDx=0;exitDy=0;entryX=1;entryY=1;entryDx=0;entryDy=0;endArrow=none;endFill=0;" edge="1" parent="1" source="ESzOXi0CgvDct79OvY_y-57" target="ESzOXi0CgvDct79OvY_y-51">
          <mxGeometry relative="1" as="geometry" />
        </mxCell>
        <mxCell id="ESzOXi0CgvDct79OvY_y-57" value="doc_descriptipn" style="ellipse;whiteSpace=wrap;" vertex="1" parent="1">
          <mxGeometry x="680" y="380" width="150" height="80" as="geometry" />
        </mxCell>
        <mxCell id="ESzOXi0CgvDct79OvY_y-67" value="" style="rounded=0;orthogonalLoop=1;jettySize=auto;exitX=1;exitY=0.5;exitDx=0;exitDy=0;entryX=0;entryY=0.25;entryDx=0;entryDy=0;endArrow=none;endFill=0;" edge="1" parent="1" source="ESzOXi0CgvDct79OvY_y-58" target="ESzOXi0CgvDct79OvY_y-51">
          <mxGeometry relative="1" as="geometry" />
        </mxCell>
        <mxCell id="ESzOXi0CgvDct79OvY_y-58" value="cod_path" style="ellipse;whiteSpace=wrap;" vertex="1" parent="1">
          <mxGeometry x="410" y="280" width="120" height="80" as="geometry" />
        </mxCell>
        <mxCell id="ESzOXi0CgvDct79OvY_y-68" value="" style="rounded=0;orthogonalLoop=1;jettySize=auto;exitX=0;exitY=0.5;exitDx=0;exitDy=0;entryX=1;entryY=0.5;entryDx=0;entryDy=0;endArrow=none;endFill=0;" edge="1" parent="1" source="ESzOXi0CgvDct79OvY_y-60" target="ESzOXi0CgvDct79OvY_y-51">
          <mxGeometry relative="1" as="geometry" />
        </mxCell>
        <mxCell id="ESzOXi0CgvDct79OvY_y-60" value="upload_date" style="ellipse;whiteSpace=wrap;" vertex="1" parent="1">
          <mxGeometry x="730" y="290" width="120" height="80" as="geometry" />
        </mxCell>
        <mxCell id="ESzOXi0CgvDct79OvY_y-64" value="doc_id" style="ellipse;whiteSpace=wrap;" vertex="1" parent="1">
          <mxGeometry x="501" y="200" width="120" height="80" as="geometry" />
        </mxCell>
        <mxCell id="ESzOXi0CgvDct79OvY_y-65" value="" style="rounded=0;orthogonalLoop=1;jettySize=auto;exitX=0.5;exitY=1;exitDx=0;exitDy=0;entryX=0.38;entryY=0;entryDx=0;entryDy=0;entryPerimeter=0;endArrow=none;endFill=0;" edge="1" parent="1" source="ESzOXi0CgvDct79OvY_y-64" target="ESzOXi0CgvDct79OvY_y-51">
          <mxGeometry relative="1" as="geometry" />
        </mxCell>
        <mxCell id="ESzOXi0CgvDct79OvY_y-71" value="" style="rounded=0;orthogonalLoop=1;jettySize=auto;exitX=1;exitY=0.5;exitDx=0;exitDy=0;endArrow=none;endFill=0;" edge="1" parent="1" source="ESzOXi0CgvDct79OvY_y-72" target="ESzOXi0CgvDct79OvY_y-79">
          <mxGeometry relative="1" as="geometry" />
        </mxCell>
        <mxCell id="ESzOXi0CgvDct79OvY_y-72" value="project_documents" style="rounded=0;whiteSpace=wrap;" vertex="1" parent="1">
          <mxGeometry x="1172" y="380" width="120" height="60" as="geometry" />
        </mxCell>
        <mxCell id="ESzOXi0CgvDct79OvY_y-73" value="" style="rounded=0;orthogonalLoop=1;jettySize=auto;exitX=0.5;exitY=1;exitDx=0;exitDy=0;entryX=0.75;entryY=0;entryDx=0;entryDy=0;endArrow=none;endFill=0;" edge="1" parent="1" source="ESzOXi0CgvDct79OvY_y-74" target="ESzOXi0CgvDct79OvY_y-72">
          <mxGeometry relative="1" as="geometry" />
        </mxCell>
        <mxCell id="ESzOXi0CgvDct79OvY_y-74" value="submitted_at" style="ellipse;whiteSpace=wrap;" vertex="1" parent="1">
          <mxGeometry x="1268" y="240" width="150" height="80" as="geometry" />
        </mxCell>
        <mxCell id="ESzOXi0CgvDct79OvY_y-75" value="" style="rounded=0;orthogonalLoop=1;jettySize=auto;exitX=0.5;exitY=1;exitDx=0;exitDy=0;entryX=0.25;entryY=0;entryDx=0;entryDy=0;endArrow=none;endFill=0;" edge="1" parent="1" source="ESzOXi0CgvDct79OvY_y-76" target="ESzOXi0CgvDct79OvY_y-72">
          <mxGeometry relative="1" as="geometry" />
        </mxCell>
        <mxCell id="ESzOXi0CgvDct79OvY_y-76" value="requser_id" style="ellipse;whiteSpace=wrap;" vertex="1" parent="1">
          <mxGeometry x="1053" y="240" width="150" height="80" as="geometry" />
        </mxCell>
        <mxCell id="ESzOXi0CgvDct79OvY_y-77" value="" style="rounded=0;orthogonalLoop=1;jettySize=auto;exitX=0;exitY=0.5;exitDx=0;exitDy=0;entryX=1;entryY=0;entryDx=0;entryDy=0;endArrow=none;endFill=0;" edge="1" parent="1" source="ESzOXi0CgvDct79OvY_y-78" target="ESzOXi0CgvDct79OvY_y-72">
          <mxGeometry relative="1" as="geometry" />
        </mxCell>
        <mxCell id="ESzOXi0CgvDct79OvY_y-78" value="status" style="ellipse;whiteSpace=wrap;" vertex="1" parent="1">
          <mxGeometry x="1352" y="324" width="140" height="80" as="geometry" />
        </mxCell>
        <mxCell id="ESzOXi0CgvDct79OvY_y-79" value="reject_reason" style="ellipse;whiteSpace=wrap;" vertex="1" parent="1">
          <mxGeometry x="1380" y="417" width="150" height="80" as="geometry" />
        </mxCell>
        <mxCell id="ESzOXi0CgvDct79OvY_y-80" value="" style="rounded=0;orthogonalLoop=1;jettySize=auto;exitX=1;exitY=0.5;exitDx=0;exitDy=0;entryX=0;entryY=0;entryDx=0;entryDy=0;endArrow=none;endFill=0;" edge="1" parent="1" source="ESzOXi0CgvDct79OvY_y-81" target="ESzOXi0CgvDct79OvY_y-72">
          <mxGeometry relative="1" as="geometry" />
        </mxCell>
        <mxCell id="ESzOXi0CgvDct79OvY_y-81" value="typr_id" style="ellipse;whiteSpace=wrap;" vertex="1" parent="1">
          <mxGeometry x="987" y="330" width="160" height="80" as="geometry" />
        </mxCell>
        <mxCell id="ESzOXi0CgvDct79OvY_y-82" value="" style="rounded=0;orthogonalLoop=1;jettySize=auto;exitX=1;exitY=0;exitDx=0;exitDy=0;entryX=0;entryY=0.5;entryDx=0;entryDy=0;endArrow=none;endFill=0;" edge="1" parent="1" source="ESzOXi0CgvDct79OvY_y-83" target="ESzOXi0CgvDct79OvY_y-72">
          <mxGeometry relative="1" as="geometry" />
        </mxCell>
        <mxCell id="ESzOXi0CgvDct79OvY_y-83" value="file_path" style="ellipse;whiteSpace=wrap;" vertex="1" parent="1">
          <mxGeometry x="970" y="420" width="150" height="80" as="geometry" />
        </mxCell>
        <mxCell id="ESzOXi0CgvDct79OvY_y-84" value="" style="rounded=0;orthogonalLoop=1;jettySize=auto;exitX=0.5;exitY=1;exitDx=0;exitDy=0;entryX=0.5;entryY=0;entryDx=0;entryDy=0;endArrow=none;endFill=0;" edge="1" parent="1" source="ESzOXi0CgvDct79OvY_y-85" target="ESzOXi0CgvDct79OvY_y-72">
          <mxGeometry relative="1" as="geometry" />
        </mxCell>
        <mxCell id="ESzOXi0CgvDct79OvY_y-85" value="douument_id" style="ellipse;whiteSpace=wrap;" vertex="1" parent="1">
          <mxGeometry x="1159" y="170" width="150" height="80" as="geometry" />
        </mxCell>
        <mxCell id="ESzOXi0CgvDct79OvY_y-86" value="" style="rounded=0;orthogonalLoop=1;jettySize=auto;exitX=1;exitY=0.5;exitDx=0;exitDy=0;endArrow=none;endFill=0;" edge="1" parent="1" source="ESzOXi0CgvDct79OvY_y-87" target="ESzOXi0CgvDct79OvY_y-94">
          <mxGeometry relative="1" as="geometry" />
        </mxCell>
        <mxCell id="ESzOXi0CgvDct79OvY_y-87" value="project_release" style="rounded=0;whiteSpace=wrap;" vertex="1" parent="1">
          <mxGeometry x="1212" y="740" width="120" height="60" as="geometry" />
        </mxCell>
        <mxCell id="ESzOXi0CgvDct79OvY_y-88" value="" style="rounded=0;orthogonalLoop=1;jettySize=auto;exitX=0.5;exitY=1;exitDx=0;exitDy=0;entryX=0.75;entryY=0;entryDx=0;entryDy=0;endArrow=none;endFill=0;" edge="1" parent="1" source="ESzOXi0CgvDct79OvY_y-89" target="ESzOXi0CgvDct79OvY_y-87">
          <mxGeometry relative="1" as="geometry" />
        </mxCell>
        <mxCell id="ESzOXi0CgvDct79OvY_y-89" value="project_type" style="ellipse;whiteSpace=wrap;" vertex="1" parent="1">
          <mxGeometry x="1308" y="600" width="150" height="80" as="geometry" />
        </mxCell>
        <mxCell id="ESzOXi0CgvDct79OvY_y-90" value="" style="rounded=0;orthogonalLoop=1;jettySize=auto;exitX=0.5;exitY=1;exitDx=0;exitDy=0;entryX=0.25;entryY=0;entryDx=0;entryDy=0;endArrow=none;endFill=0;" edge="1" parent="1" source="ESzOXi0CgvDct79OvY_y-91" target="ESzOXi0CgvDct79OvY_y-87">
          <mxGeometry relative="1" as="geometry" />
        </mxCell>
        <mxCell id="ESzOXi0CgvDct79OvY_y-91" value="project_name_th" style="ellipse;whiteSpace=wrap;" vertex="1" parent="1">
          <mxGeometry x="1093" y="600" width="150" height="80" as="geometry" />
        </mxCell>
        <mxCell id="ESzOXi0CgvDct79OvY_y-92" value="" style="rounded=0;orthogonalLoop=1;jettySize=auto;exitX=0;exitY=0.5;exitDx=0;exitDy=0;entryX=1;entryY=0;entryDx=0;entryDy=0;endArrow=none;endFill=0;" edge="1" parent="1" source="ESzOXi0CgvDct79OvY_y-93" target="ESzOXi0CgvDct79OvY_y-87">
          <mxGeometry relative="1" as="geometry" />
        </mxCell>
        <mxCell id="ESzOXi0CgvDct79OvY_y-93" value="project_status" style="ellipse;whiteSpace=wrap;" vertex="1" parent="1">
          <mxGeometry x="1392" y="684" width="140" height="80" as="geometry" />
        </mxCell>
        <mxCell id="ESzOXi0CgvDct79OvY_y-94" value="project_name_eng" style="ellipse;whiteSpace=wrap;" vertex="1" parent="1">
          <mxGeometry x="1390" y="777" width="180" height="80" as="geometry" />
        </mxCell>
        <mxCell id="ESzOXi0CgvDct79OvY_y-95" value="" style="rounded=0;orthogonalLoop=1;jettySize=auto;exitX=1;exitY=0.5;exitDx=0;exitDy=0;entryX=0;entryY=0;entryDx=0;entryDy=0;endArrow=none;endFill=0;" edge="1" parent="1" source="ESzOXi0CgvDct79OvY_y-96" target="ESzOXi0CgvDct79OvY_y-87">
          <mxGeometry relative="1" as="geometry" />
        </mxCell>
        <mxCell id="ESzOXi0CgvDct79OvY_y-96" value="advisor_id" style="ellipse;whiteSpace=wrap;" vertex="1" parent="1">
          <mxGeometry x="1027" y="690" width="160" height="80" as="geometry" />
        </mxCell>
        <mxCell id="ESzOXi0CgvDct79OvY_y-97" value="" style="rounded=0;orthogonalLoop=1;jettySize=auto;exitX=1;exitY=0;exitDx=0;exitDy=0;entryX=0;entryY=0.5;entryDx=0;entryDy=0;endArrow=none;endFill=0;" edge="1" parent="1" source="ESzOXi0CgvDct79OvY_y-98" target="ESzOXi0CgvDct79OvY_y-87">
          <mxGeometry relative="1" as="geometry" />
        </mxCell>
        <mxCell id="ESzOXi0CgvDct79OvY_y-98" value="project_create_time" style="ellipse;whiteSpace=wrap;" vertex="1" parent="1">
          <mxGeometry x="980" y="780" width="180" height="80" as="geometry" />
        </mxCell>
        <mxCell id="ESzOXi0CgvDct79OvY_y-99" value="" style="rounded=0;orthogonalLoop=1;jettySize=auto;exitX=0.5;exitY=1;exitDx=0;exitDy=0;entryX=0.5;entryY=0;entryDx=0;entryDy=0;endArrow=none;endFill=0;" edge="1" parent="1" source="ESzOXi0CgvDct79OvY_y-100" target="ESzOXi0CgvDct79OvY_y-87">
          <mxGeometry relative="1" as="geometry" />
        </mxCell>
        <mxCell id="ESzOXi0CgvDct79OvY_y-100" value="project_id" style="ellipse;whiteSpace=wrap;" vertex="1" parent="1">
          <mxGeometry x="1198" y="530" width="150" height="80" as="geometry" />
        </mxCell>
        <mxCell id="ESzOXi0CgvDct79OvY_y-102" value="" style="rounded=0;orthogonalLoop=1;jettySize=auto;exitX=1;exitY=0.5;exitDx=0;exitDy=0;endArrow=none;endFill=0;" edge="1" parent="1" source="ESzOXi0CgvDct79OvY_y-103" target="ESzOXi0CgvDct79OvY_y-110">
          <mxGeometry relative="1" as="geometry" />
        </mxCell>
        <mxCell id="ESzOXi0CgvDct79OvY_y-103" value="project_requests" style="rounded=0;whiteSpace=wrap;" vertex="1" parent="1">
          <mxGeometry x="1822" y="370" width="120" height="60" as="geometry" />
        </mxCell>
        <mxCell id="ESzOXi0CgvDct79OvY_y-104" value="" style="rounded=0;orthogonalLoop=1;jettySize=auto;exitX=0.5;exitY=1;exitDx=0;exitDy=0;entryX=0.75;entryY=0;entryDx=0;entryDy=0;endArrow=none;endFill=0;" edge="1" parent="1" source="ESzOXi0CgvDct79OvY_y-105" target="ESzOXi0CgvDct79OvY_y-103">
          <mxGeometry relative="1" as="geometry" />
        </mxCell>
        <mxCell id="ESzOXi0CgvDct79OvY_y-105" value="project_name_eng" style="ellipse;whiteSpace=wrap;" vertex="1" parent="1">
          <mxGeometry x="1918" y="230" width="172" height="80" as="geometry" />
        </mxCell>
        <mxCell id="ESzOXi0CgvDct79OvY_y-106" value="" style="rounded=0;orthogonalLoop=1;jettySize=auto;exitX=0.5;exitY=1;exitDx=0;exitDy=0;entryX=0.25;entryY=0;entryDx=0;entryDy=0;endArrow=none;endFill=0;" edge="1" parent="1" source="ESzOXi0CgvDct79OvY_y-107" target="ESzOXi0CgvDct79OvY_y-103">
          <mxGeometry relative="1" as="geometry" />
        </mxCell>
        <mxCell id="ESzOXi0CgvDct79OvY_y-107" value="project_name" style="ellipse;whiteSpace=wrap;" vertex="1" parent="1">
          <mxGeometry x="1703" y="230" width="150" height="80" as="geometry" />
        </mxCell>
        <mxCell id="ESzOXi0CgvDct79OvY_y-108" value="" style="rounded=0;orthogonalLoop=1;jettySize=auto;exitX=0;exitY=0.5;exitDx=0;exitDy=0;entryX=1;entryY=0;entryDx=0;entryDy=0;endArrow=none;endFill=0;" edge="1" parent="1" source="ESzOXi0CgvDct79OvY_y-109" target="ESzOXi0CgvDct79OvY_y-103">
          <mxGeometry relative="1" as="geometry" />
        </mxCell>
        <mxCell id="ESzOXi0CgvDct79OvY_y-109" value="advisor_id" style="ellipse;whiteSpace=wrap;" vertex="1" parent="1">
          <mxGeometry x="2002" y="314" width="140" height="80" as="geometry" />
        </mxCell>
        <mxCell id="ESzOXi0CgvDct79OvY_y-110" value="status" style="ellipse;whiteSpace=wrap;" vertex="1" parent="1">
          <mxGeometry x="2000" y="407" width="180" height="80" as="geometry" />
        </mxCell>
        <mxCell id="ESzOXi0CgvDct79OvY_y-111" value="" style="rounded=0;orthogonalLoop=1;jettySize=auto;exitX=1;exitY=0.5;exitDx=0;exitDy=0;entryX=0;entryY=0;entryDx=0;entryDy=0;endArrow=none;endFill=0;" edge="1" parent="1" source="ESzOXi0CgvDct79OvY_y-112" target="ESzOXi0CgvDct79OvY_y-103">
          <mxGeometry relative="1" as="geometry" />
        </mxCell>
        <mxCell id="ESzOXi0CgvDct79OvY_y-112" value="project_type" style="ellipse;whiteSpace=wrap;" vertex="1" parent="1">
          <mxGeometry x="1637" y="320" width="160" height="80" as="geometry" />
        </mxCell>
        <mxCell id="ESzOXi0CgvDct79OvY_y-113" value="" style="rounded=0;orthogonalLoop=1;jettySize=auto;exitX=1;exitY=0;exitDx=0;exitDy=0;entryX=0;entryY=0.5;entryDx=0;entryDy=0;endArrow=none;endFill=0;" edge="1" parent="1" source="ESzOXi0CgvDct79OvY_y-114" target="ESzOXi0CgvDct79OvY_y-103">
          <mxGeometry relative="1" as="geometry" />
        </mxCell>
        <mxCell id="ESzOXi0CgvDct79OvY_y-114" value="student_id" style="ellipse;whiteSpace=wrap;" vertex="1" parent="1">
          <mxGeometry x="1590" y="410" width="180" height="80" as="geometry" />
        </mxCell>
        <mxCell id="ESzOXi0CgvDct79OvY_y-115" value="" style="rounded=0;orthogonalLoop=1;jettySize=auto;exitX=0.5;exitY=1;exitDx=0;exitDy=0;entryX=0.5;entryY=0;entryDx=0;entryDy=0;endArrow=none;endFill=0;" edge="1" parent="1" source="ESzOXi0CgvDct79OvY_y-116" target="ESzOXi0CgvDct79OvY_y-103">
          <mxGeometry relative="1" as="geometry" />
        </mxCell>
        <mxCell id="ESzOXi0CgvDct79OvY_y-116" value="request_id" style="ellipse;whiteSpace=wrap;" vertex="1" parent="1">
          <mxGeometry x="1808" y="160" width="150" height="80" as="geometry" />
        </mxCell>
        <mxCell id="ESzOXi0CgvDct79OvY_y-129" value="" style="rounded=0;orthogonalLoop=1;jettySize=auto;exitX=1;exitY=1;exitDx=0;exitDy=0;entryX=0.25;entryY=0;entryDx=0;entryDy=0;endArrow=none;endFill=0;" edge="1" parent="1" source="ESzOXi0CgvDct79OvY_y-117" target="ESzOXi0CgvDct79OvY_y-8">
          <mxGeometry relative="1" as="geometry" />
        </mxCell>
        <mxCell id="ESzOXi0CgvDct79OvY_y-117" value="id" style="ellipse;whiteSpace=wrap;" vertex="1" parent="1">
          <mxGeometry x="1720" y="540" width="120" height="80" as="geometry" />
        </mxCell>
        <mxCell id="ESzOXi0CgvDct79OvY_y-126" value="" style="rounded=0;orthogonalLoop=1;jettySize=auto;exitX=0;exitY=1;exitDx=0;exitDy=0;entryX=0.75;entryY=0;entryDx=0;entryDy=0;endArrow=none;endFill=0;" edge="1" parent="1" source="ESzOXi0CgvDct79OvY_y-118" target="ESzOXi0CgvDct79OvY_y-8">
          <mxGeometry relative="1" as="geometry" />
        </mxCell>
        <mxCell id="ESzOXi0CgvDct79OvY_y-118" value="request_id" style="ellipse;whiteSpace=wrap;" vertex="1" parent="1">
          <mxGeometry x="1920" y="540" width="120" height="80" as="geometry" />
        </mxCell>
        <mxCell id="ESzOXi0CgvDct79OvY_y-128" value="" style="rounded=0;orthogonalLoop=1;jettySize=auto;exitX=1;exitY=0.5;exitDx=0;exitDy=0;entryX=0;entryY=0.5;entryDx=0;entryDy=0;endArrow=none;endFill=0;" edge="1" parent="1" source="ESzOXi0CgvDct79OvY_y-119" target="ESzOXi0CgvDct79OvY_y-8">
          <mxGeometry relative="1" as="geometry" />
        </mxCell>
        <mxCell id="ESzOXi0CgvDct79OvY_y-119" value="student_id" style="ellipse;whiteSpace=wrap;" vertex="1" parent="1">
          <mxGeometry x="1660" y="630" width="120" height="80" as="geometry" />
        </mxCell>
        <mxCell id="ESzOXi0CgvDct79OvY_y-124" value="" style="rounded=0;orthogonalLoop=1;jettySize=auto;exitX=0;exitY=0.5;exitDx=0;exitDy=0;endArrow=none;endFill=0;" edge="1" parent="1" source="ESzOXi0CgvDct79OvY_y-120" target="ESzOXi0CgvDct79OvY_y-8">
          <mxGeometry relative="1" as="geometry" />
        </mxCell>
        <mxCell id="ESzOXi0CgvDct79OvY_y-120" value="project_id" style="ellipse;whiteSpace=wrap;" vertex="1" parent="1">
          <mxGeometry x="1970" y="630" width="120" height="80" as="geometry" />
        </mxCell>
      </root>
    </mxGraphModel>
  </diagram>
</mxfile>
